#define bot_width 10
#define bot_height 10
static unsigned char bot_bits[] = {
   0x00, 0x00, 0xff, 0x03, 0xfe, 0x01, 0xfe, 0x01, 0xfc, 0x00, 0x7c, 0x00,
   0x38, 0x00, 0x38, 0x00, 0x10, 0x00, 0xff, 0x03};
