/* XPM */
static char * cdrom_xpm[] = {
"50 50 63 1",
" 	c None s None",
".	c #71C669A64924",
"X	c #30C230C230C2",
"o	c #28A21C711040",
"O	c #79E77DF78617",
"+	c #514449240000",
"@	c #4103618538E3",
"#	c #F7DE0820AEBA",
"$	c #9E790C302081",
"%	c #965830C20820",
"&	c #596534D31040",
"*	c #79E720810000",
"=	c #1861A699AEBA",
"-	c #30C228A21861",
";	c #A6998A280820",
":	c #FFFFFBEE0000",
">	c #FFFFEBAD28A2",
",	c #69A614510000",
"<	c #2081C71BE79D",
"1	c #9658C71BB6DA",
"2	c #B6DAA2894103",
"3	c #410314510000",
"4	c #41033CF31861",
"5	c #8E3845140820",
"6	c #E79DCF3C1040",
"7	c #EFBEEFBE0000",
"8	c #C71B596538E3",
"9	c #F7DE451471C6",
"0	c #EFBECB2B69A6",
"q	c #FFFF8E3828A2",
"w	c #FFFFCF3C6185",
"e	c #FFFF79E76185",
"r	c #F7DE2CB28617",
"t	c #FFFFD75C1040",
"y	c #C71B8A280000",
"u	c #861782078617",
"i	c #D75CA6990000",
"p	c #FFFFC30B0000",
"a	c #596510400000",
"s	c #FFFFAAAA1040",
"d	c #FFFF5D7569A6",
"f	c #E79D8E381040",
"g	c #E79DB6DA4103",
"h	c #FFFFA2890820",
"j	c #FFFFB6DA28A2",
"k	c #A699C30B0820",
"l	c #B6DA65950000",
"z	c #49249E791040",
"x	c #2081AAAA0000",
"c	c #4924BAEA2081",
"v	c #9E7951440000",
"b	c #8E3869A61861",
"n	c #71C68A281861",
"m	c #8E38A28928A2",
"M	c #618561852081",
"N	c #EFBE6DB62081",
"B	c #B6DA4D340000",
"V	c #8E388A2879E7",
"C	c #49248E382081",
"Z	c #AEBA4D340000",
"A	c #AEBA3CF30000",
"S	c #BEFB75D630C2",
"D	c #30C204100000",
"                     .XXoooX.                     ",
"                 Oo+@#$%&*$==X--O                 ",
"               -+;:>###*,$#==<12234               ",
"             o56::7###8&&9#=<= 000q+o             ",
"           X+6::::w##er,&$#<=10wwwwt6+X           ",
"          oytt7::>e##ey,&#u=<1w0wwt7::io          ",
"         3ittp:::w##e0qa&r=<=0wwwwp:::7io         ",
"        4tt7ss7::d##0wfa+#==10wgwt::::thf&        ",
"       &6jthfh::tr##0wi,+r==10gkwt::::sfih+       ",
"      ok6pphlh::w###0>j&4r=<<00kt7:::tsyyhi3      ",
"     ozzkppflh::q##ew>j5+uO==0wkt:::tshyypiio     ",
"    Xzxxcipyli::d#r#w:tv+8O=<1wkt:::psfyyiiibX    ",
"    +7kxxcilvi::d##e>>tln;.==106k::tshyyiieyi+    ",
"   oxxk7xxnbvf:>r#ret::f;mmO==1sk7:phyyyy99yi;-   ",
"   4xxxc7kzn5y::e#ee>>thiilM===gk77piy;l9N;kyi+   ",
"  4+nzzzzk7;+;7:e#de6j6tgg0BM==O267py;;98;i;;yb-  ",
"  olb;;bnzkii;p:qreqkk;bM.$20V.OCk7yy;N9;yy;lllo  ",
" .5NyNyl;l+nyip:pddkz-XXX@XXoVgV27kyyy9l;;lllll5. ",
" Xyhhhhfll;nM5i7hNgMo.Ouuuuu.-.2i6yy;89lllZvZZZZo ",
" 3fhinnyhhhy;M5iy0XXOuuuuuuuuOXMk;;n;98lBZZZZBZZo ",
" 3BBvn+zyhhhf;M52.-OuOuuuOOOOuuXnzzb99AZAZAZAAAA3 ",
".355*,,a*AfhphfbSX.uuOOO   OOOOO4;Ar8AAAAAAA%%**D.",
"X3,aaDD3D3a%yihS2XOOOOO     OOOOX5AAAAA***,****,3X",
"o3aaaaaa,D3D,vbfbXuOOO       OOu@&5%%**,,a,,,,,&&-",
"oDaa,*&*,,a3DDa8M@uuOO       uuu.o&*,,aaDa3a&a+++o",
"o3,aaa*&,,,,$r$9.@uOuO       OOO.o&,*****,++4&4&+o",
"oa&,,&&&++&&***$$XuuuO       OOu@-*$##r###rrr#$9$o",
"X3,&*++++++++5AA9XuuOOO     OOOuXvr#rrr#r$$$$$*,3X",
".D**&+5**A%AAAAv8-.uuOOO   OuOuO-yZAAA$$$$*$a,,,D.",
" D55%A%AAAAZBlbnnb-OuOOuOOOOOuu-;knnvBZAAAAAA%%A3 ",
" o%%v555vvvbbnzxxkMXOuuuuOuOuuXMk6kxz;blBBBBBBBB3 ",
" o5AvbnnnzzznznxxzgMo.uVuuuuOX+6yk77kzzn;llllBBZD ",
" O,vvvvnnzxzzzzxxxngVXXX@.XX4n;fhimk7kxxznznlll%. ",
"  3yBvvbnnxxxxxxxcz;002u...;y8repp6kkk:zxxxznn;4  ",
"  4NhNZvvvzzxxzzzzk;f8r1 eee9###spphknk7kxxzzzzo  ",
"   *hhyllvbvnn;;yyyy8# <=b8999##9spph6nkkkkzxx+   ",
"   3fhhhfyllfNffhN99rO<=a+;Sdedd#estpppkzkkcxxo   ",
"    +phhhhhhhhh9rrr9<<<Xa+z22eedddssppphkzxcx+    ",
"    XlhhhhhhhNr9B8b=<<-Da&zbe0eedreqsppphncxz4    ",
"     DhphhfNB9BvVu<<<@DD,+xn2gwed99esspphkkko     ",
"      -hhflllS2u1<<1OaDaA5xn200ee9reesqsspi3      ",
"       +fN22111<<<11&DDaf5xnVwwwe9r9qeqess+O      ",
"       .42V111<111 M,33Ahvxz22wwedrreddqq+.       ",
"         42 111<1 b,Da,fhvxk2gwwwd9r9edq&O        ",
"          o2 11  65,a,Bhpv4c2gwwwd9deqND          ",
"           -+000fv**%BhhpAxxkwwweddeq5-           ",
"             -nfiZ%ZlNhhpB+x6g00eeebo             ",
"               o&5lyyhhhpl+cke008b-               ",
"                 @o&+yfhhynx;SM3.                 ",
"                    .X-ooooXX.                    "};
