#define pausebits_width 16
#define pausebits_height 16
static unsigned char pausebits_bits[] = {
   0x00, 0x00, 0x0c, 0x03, 0x0c, 0x03, 0x0c, 0x03, 0x0c, 0x03, 0x0c, 0x03,
   0x0c, 0x03, 0x0c, 0x03, 0x0c, 0x03, 0x0c, 0x03, 0x0c, 0x03, 0x0c, 0x03,
   0x0c, 0x03, 0x0c, 0x03, 0x0c, 0x03, 0x00, 0x00};
