#define playbut_width 16
#define playbut_height 16
static unsigned char playbut_bits[] = {
   0x00, 0x00, 0x02, 0x00, 0x0e, 0x00, 0x3e, 0x00, 0xfe, 0x00, 0xfe, 0x03,
   0xfe, 0x0f, 0xfe, 0x1f, 0xfe, 0x0f, 0xfe, 0x03, 0xfe, 0x01, 0x7e, 0x00,
   0x1e, 0x00, 0x0e, 0x00, 0x02, 0x00, 0x00, 0x00};
