#define skipforw_width 16
#define skipforw_height 16
static unsigned char skipforw_bits[] = {
   0x00, 0x00, 0x82, 0xc1, 0x86, 0xc3, 0x8e, 0xc7, 0x9e, 0xcf, 0xbe, 0xdf,
   0xfe, 0xff, 0xfe, 0xff, 0xfe, 0xff, 0xfe, 0xff, 0xbe, 0xdf, 0x9e, 0xcf,
   0x8e, 0xc7, 0x86, 0xc3, 0x82, 0xc1, 0x00, 0x00};
