#define skipback_width 16
#define skipback_height 16
static unsigned char skipback_bits[] = {
   0x00, 0x00, 0x83, 0x41, 0xc3, 0x61, 0xe3, 0x71, 0xf3, 0x79, 0xfb, 0x7d,
   0xff, 0x7f, 0xff, 0x7f, 0xff, 0x7f, 0xff, 0x7f, 0xfb, 0x7d, 0xf3, 0x79,
   0xe3, 0x71, 0xc3, 0x61, 0x83, 0x41, 0x00, 0x00};
