/* XPM */
static char * toolPlay_xpm[] = {
"24 24 7 1",
" 	c None s None",
".	c #000000000000",
"X	c #861782078617",
"o	c #FFFFFFFF0000",
"O	c #C71BC30BC71B",
"+	c #0000FFFFFFFF",
"@	c #0000FFFF0000",
"                        ",
"     ..                 ",
"     ..                 ",
"     ......             ",
"     . ....             ",
"     .    .XXXXX        ",
"   ...   X.oooOOXX      ",
"  . .. XXO.oooOOOO..    ",
"  ....X....+ooOOOOOO    ",
"   ..XO ...+ooOOOOO O.  ",
"    X++....+ooOOOOO XX. ",
"    XOO...@+ooOOO  XOO. ",
"   XOOOOO+OX...X  OXOOX.",
"   XOOOOOO+.OOX.XXXOXXO.",
"   XOOOOOOO.OOX.XOOOOOO.",
"   XOXOOXOX.OOX.XOOOOOO.",
"    XOXXOX X...XOOOOOOO.",
"    XOXX O OOOO++OOOOO. ",
"    XXO O OOOo@O++OOOO. ",
"     XXO OOOOO@O++OOO.  ",
"      XOOOOOOO@@O+++.   ",
"       XOOOOOoo@@O..    ",
"        XXXOOoo@..      ",
"           .....        "};
