/* XPM */
static char * toolStop_xpm[] = {
"24 24 6 1",
" 	c None s None",
".	c #000000000000",
"X	c #B6DA00000000",
"o	c #FFFF00000000",
"O	c #FFFF65956185",
"+	c #FFFFFFFFFFFF",
"      ...........       ",
"     .Xoooooooooo.      ",
"    .Xoooooooooooo.     ",
"   .Xoooooooooooooo.    ",
"  .Xoooooooooooooooo.   ",
" .Xoooooooooooooooooo.  ",
".Xoooooooooooooooooooo. ",
".XooooooooooooooooooooO.",
".Xoo+++X+++++X++Xo+++XO.",
".Xo+XXXoXX+XX+XX+X+XX+X.",
".Xo+Xooooo+Xo+Xo+X+Xo+X.",
".Xo++++Xoo+Xo+Xo+X+++XO.",
".XoXXX+Xoo+Xo+Xo+X+XooO.",
".Xoooo+Xoo+Xo+Xo+X+XooO.",
".Xo+++Xooo+XoX++XX+XooO.",
".XoXXXooooXXooXXoooXooO.",
".XooooooooooooooooooooO.",
" .oooooooooooooooooooO.X",
"  .oooooooooooooooooO.X ",
"   .oooooooooooooooO.X  ",
"    .oooooooooooooO.X   ",
"     .oooooooooooO.X    ",
"      .OOOOOOOOOO.X     ",
"       ..........X      "};
