/* XPM */
static char * toolRandom_xpm[] = {
"24 24 6 1",
" 	c None s None",
".	c #FFFF00000000",
"X	c #00000000FFFF",
"o	c #0000FFFF0000",
"O	c #FFFFFFFF0000",
"+	c #000000000000",
"                        ",
"              .         ",
"               .        ",
"  ...............       ",
"               .        ",
"           X  .   o     ",
"          X       o     ",
"         XXXXXX   o     ",
"          X     o o o   ",
"           X     ooo    ",
"        O         o     ",
"        O               ",
"        O               ",
"      O O O             ",
"       OOO       .      ",
"        O         .     ",
"          ..........    ",
"                  .     ",
"                 .      ",
"   +   X                ",
"   +  X                 ",
"   + XXXXXXXXXXXXXXXX   ",
"   +  X                 ",
"   +   X                "};
