#define toolStop_width 24
#define toolStop_height 24
static unsigned char toolStop_bits[] = {
   0xc0, 0xff, 0x01, 0x20, 0x00, 0x02, 0x10, 0x00, 0x04, 0x08, 0x00, 0x08,
   0x04, 0x00, 0x10, 0x02, 0x00, 0x20, 0x01, 0x00, 0x40, 0x01, 0x00, 0x80,
   0x71, 0xdf, 0x9c, 0x09, 0x24, 0xa5, 0x09, 0x24, 0xa5, 0x79, 0x24, 0x9d,
   0x41, 0x24, 0x85, 0x41, 0x24, 0x85, 0x39, 0xc4, 0x84, 0x01, 0x00, 0x80,
   0x01, 0x00, 0x80, 0x02, 0x00, 0x40, 0x04, 0x00, 0x20, 0x08, 0x00, 0x10,
   0x10, 0x00, 0x08, 0x20, 0x00, 0x04, 0x40, 0x00, 0x02, 0x80, 0xff, 0x01};
