/* XPM */
static char * toolRepeat_xpm[] = {
"24 24 6 1",
" 	c None s None",
".	c #965892489658",
"X	c #69A66DB669A6",
"o	c #FFFFFFFFFFFF",
"O	c #A699A699A699",
"+	c #FFFFFFFF0000",
"                        ",
"                        ",
"                        ",
"                        ",
"                        ",
"      .X                ",
"      .oX ..........    ",
"   ....ooX.ooooooooo.   ",
"  .oooooooX.ooooooooo.  ",
" .oooooooo..oooooooooo. ",
" .ooooXoo..oooooooooooo.",
" .oooXXo. .XXXXXXXXXOoo.",
" .oooX .           XOO+.",
" .oooX             XOO+.",
" .oooX             XOO+.",
" .oooX           X XOO+.",
" .oooOXXXXXXXX. XoXXoO+.",
" .oooOOOOooooo.XooXXoo+.",
"  .oOOOOooooo.Xoooooooo.",
"   .OOOOooooo.Xooooooo..",
"    .++++ooooo..ooooo.  ",
"     ............o...   ",
"                 ..     ",
"                        "};
