#define toolEditPlay_width 24
#define toolEditPlay_height 24
static unsigned char toolEditPlay_bits[] = {
   0x00, 0x00, 0x00, 0x00, 0x00, 0x00, 0x80, 0xff, 0x01, 0x80, 0xff, 0x03,
   0x80, 0x01, 0x03, 0x80, 0x01, 0x03, 0x80, 0x01, 0x03, 0x80, 0x01, 0x03,
   0x80, 0x01, 0x03, 0x80, 0x01, 0x03, 0x80, 0x01, 0x03, 0x80, 0xff, 0x03,
   0x80, 0xff, 0x01, 0x80, 0x01, 0x00, 0x80, 0x01, 0x00, 0x80, 0x01, 0x00,
   0x80, 0x01, 0x00, 0x80, 0x01, 0x00, 0x80, 0x01, 0x00, 0x80, 0x01, 0x00,
   0x80, 0x01, 0x00, 0x80, 0x01, 0x00, 0x00, 0x00, 0x00, 0x00, 0x00, 0x00};
