/* XPM */
static char * toolShuffle_xpm[] = {
"24 24 13 1",
" 	c None s None",
".	c #861782078617",
"X	c #000000000000",
"o	c #C71BC30BC71B",
"O	c #FFFFFFFFFFFF",
"+	c #0000FFFFFFFF",
"@	c #FFFF0000FFFF",
"#	c #0000FFFF0000",
"$	c #861700000000",
"%	c #FFFFFFFF0000",
"&	c #861700008617",
"*	c #000082078617",
"=	c #000000008617",
"                        ",
"            .XXXX       ",
"           XX.oOOXX     ",
"          X++@oOOOOX    ",
"         XO+++oOOOOOX   ",
"        X#+OO@oOOOOoOX  ",
"     XXX.##Ooo$o.OOoO.  ",
"    X++@X%%%.@XXOoOoOX  ",
"   XO+++X+@+oXOOX@+o+X  ",
"  X#+OO@XOoOOXXXXX.$@X  ",
" .X##Oo..XOOX++oOOOOX.  ",
" X%%%%.@XXXXO++ooOOOOX  ",
" Xo+.ooXOXX+O+OooOOOOOX ",
" XOOoOOXOX+O+O+ooOOOOoX ",
" Xo.OO.OX.##O+o&X.OOoOOX",
"  XOOOOOoX@.@+*.OXOoOoOX",
"  XOOOOOoX+o+.XOOX=o.o.X",
"   XOOOOoXooOO.XX@.%%%%X",
"    XOOOo.OOOOO..ooO##X ",
"     XXXXXOOOOOOo@OO+#X ",
"          XOOOOOo+++OX  ",
"           XOOOOo@++X   ",
"            XXOOo.XX    ",
"              XXXX      "};
