/* XPM */
static char * toolRemaining_xpm[] = {
"24 24 11 1",
" 	c None s None",
".	c #71C682079658",
"X	c #000000000000",
"o	c #FFFFFFFF0000",
"O	c #0000FFFF0000",
"+	c #B6DA20812081",
"@	c #00000000FFFF",
"#	c #FFFF0000FFFF",
"$	c #FFFF00000000",
"%	c #28A24D344924",
"&	c #FFFFFFFFFFFF",
"         ...XXXX        ",
"       oO...XXXXXX      ",
"     +@.OO..XXXXXXXX    ",
"    .#+@oO..XXXXXXXXX   ",
"   OO.#+oO..XXXXXXXXXX  ",
"  @ooO.#oO..XXXXXXXXXXX ",
"  ++@oo.#O..XXXXXXXXXXX ",
" .....@oo$..XXXXXXXXXX..",
" ......@o@O%%%XXXXXX....",
"........@o%&&&%XXX.$....",
".........%&&&&&%X...$...",
"........%&&.  &&X...$...",
"........%&. &. &X...$...",
"........%&&.  &&....$...",
".........%&&&&&%X.$.$.$.",
"..........%&&&%.XX.$$$..",
" ..........%%%$..XX.$...",
" ...........O##$..XX....",
"  ..........o+##...XX.. ",
"  ..........$O@#$...XX. ",
"   ..........oO+#.....  ",
"    .........$O+#$...   ",
"     ........oO@@#$.    ",
"       ......o$O@#      "};
