/* XPM */
static char * toolIntro_xpm[] = {
"24 24 3 1",
" 	c None s None",
".	c #FFFFFFFF0000",
"X	c #0000FFFF0000",
"                        ",
"                        ",
"  .                     ",
" ........  X  X  X  X   ",
"  .                     ",
"                        ",
"                        ",
"  .                     ",
" ........  X  X  X  X   ",
"  .                     ",
"                        ",
"                        ",
"                        ",
"  .                     ",
" ........  X  X  X      ",
"  .                     ",
"                        ",
"                        ",
"  .                     ",
" ........  X  X  X  X   ",
"  .                     ",
"                        ",
"                        ",
"                        "};
