/* XPM */
static char * toolNormal_xpm[] = {
"24 24 6 1",
" 	c None s None",
".	c #FFFF00000000",
"X	c #0000FFFF0000",
"o	c #000000000000",
"O	c #FFFFFFFF0000",
"+	c #00000000FFFF",
"            .           ",
"             .          ",
" ..............         ",
"             .  X       ",
"            .    XX     ",
"                   X    ",
"                   X    ",
" ooooo              X   ",
"                    X   ",
"   O                 X  ",
"  OOO                X  ",
" O O O             X X X",
"   O                XXX ",
"   O                 X  ",
"    O                   ",
"    O               +   ",
"     O             +    ",
"     O             +    ",
"      OO    +    ++     ",
"        O  +   ++       ",
"          +++++         ",
"           +            ",
"            +           ",
"                        "};
