/* XPM */
static char * toolExit_xpm[] = {
"24 24 10 1",
" 	c None s None",
".	c #000000000000",
"X	c #0000FFFFFFFF",
"o	c #861782078617",
"O	c #C71BC30BC71B",
"+	c #FFFFFFFFFFFF",
"@	c #0000FFFF0000",
"#	c #000082070000",
"$	c #861700008617",
"%	c #861782070000",
"                        ",
"                        ",
"          ............. ",
"          .XXXXXXXXXo.o ",
"          .XXXXXXXXoO.o ",
"          .+XXXXXXoOO.o ",
"          .+++++XXoOO.o ",
"    o.    .XXXXXXXoOO.o ",
"    o@.   .XXXXXX+oOO.o ",
"o@@@@@@.  .XXXXXXXoOO.o ",
"o#######. .+++++++oOO.o ",
"o######.  .+++++++oOO.o ",
"    .##   .++++$$$o+O.o ",
"    ..    .$$$$$$$o+O.o ",
"          .#######o+O.o ",
"          .######@oOO.o ",
"          .##@@@@@oOO.o ",
"          .@@@@@@@oOO.o ",
"          .@%%%%%%oOO.o ",
"          .%%%%%%%oOO.o ",
"          .%%%%%%%.OO.o ",
"...........%%%%%%%%%..o.",
"...........%%%%%%%%%%.o.",
"...........++++++++++..."};
