/* XPM */
static char * toolTotal_xpm[] = {
"24 24 11 1",
" 	c #BEFBBEFBBEFB",
".	c #71C682079658",
"X	c #000000000000",
"o	c #FFFFFFFF0000",
"O	c #B6DA20812081",
"+	c #00000000FFFF",
"@	c #FFFF00000000",
"#	c #FFFF0000FFFF",
"$	c #0000FFFF0000",
"%	c #28A24D344924",
"&	c #FFFFFFFFFFFF",
"         ...XXXX        ",
"       o....XXXXXX      ",
"     O+o..@.XXXXXXXX    ",
"    .#O+o..@XXXXXXXXX   ",
"   $$.#Oo.@@@XXXXXXXXX  ",
"  +oo$.#@@..@XX@@XXXXXX ",
"  OO+oo@#$.@XXXXX@XXXXX ",
" .....@oo@..XXXXXX@XXX..",
" ....@.+o+$%%%XXXXX@....",
".....@..+o%&&&%XXX.@....",
"....@....%&&&&&%X...@...",
"....@...%&&.  &&X...@...",
"....@...%&. &. &X...@...",
"....@...%&&.  &&....@...",
"....@....%&&&&&%X...@...",
".....@....%&&&%.XX.@....",
" ....@.....%%%@..XX@....",
" .....@.....$##@..@X....",
"  .....@....oO##.@.XX.. ",
"  ......@@..@$+@@...XX. ",
"   .......@@@@@O#.....  ",
"    .........@$O#@...   ",
"     ........o$++#@.    ",
"       ......o@$+#      "};
