#define toolElapsed_width 24
#define toolElapsed_height 24
static unsigned char toolElapsed_bits[] = {
   0x00, 0xfa, 0x00, 0x00, 0xf5, 0x03, 0x60, 0xfa, 0x0f, 0xd0, 0xd4, 0x1f,
   0xd0, 0x3a, 0x3b, 0xa4, 0xfa, 0x7a, 0x1c, 0xf5, 0x79, 0x64, 0x7a, 0xb8,
   0xda, 0xfa, 0x5f, 0x55, 0xc5, 0xab, 0xaa, 0x82, 0x57, 0x55, 0x09, 0xa9,
   0xaa, 0x21, 0x57, 0x55, 0x09, 0xff, 0xad, 0x82, 0xaa, 0x55, 0x45, 0x55,
   0xaa, 0x7a, 0xb5, 0x54, 0xab, 0x55, 0x54, 0x65, 0x55, 0xa8, 0x5a, 0x2b,
   0x68, 0xd5, 0x2a, 0xa0, 0xaa, 0x16, 0xa0, 0xca, 0x0b, 0x00, 0x55, 0x03};
