#define toolNormal_width 24
#define toolNormal_height 24
static unsigned char toolNormal_bits[] = {
   0x00, 0x10, 0x00, 0x00, 0x20, 0x00, 0xfe, 0x7f, 0x00, 0x00, 0x20, 0x01,
   0x00, 0x10, 0x06, 0x00, 0x00, 0x08, 0x00, 0x00, 0x08, 0x3e, 0x00, 0x10,
   0x00, 0x00, 0x10, 0x08, 0x00, 0x20, 0x1c, 0x00, 0x20, 0x2a, 0x00, 0xa8,
   0x08, 0x00, 0x70, 0x08, 0x00, 0x20, 0x10, 0x00, 0x00, 0x10, 0x00, 0x10,
   0x20, 0x00, 0x08, 0x20, 0x00, 0x08, 0xc0, 0x10, 0x06, 0x00, 0x89, 0x01,
   0x00, 0x7c, 0x00, 0x00, 0x08, 0x00, 0x00, 0x10, 0x00, 0x00, 0x00, 0x00};
