/* XPM */
static char * toolEject_xpm[] = {
"24 24 16 1",
" 	c None s None",
".	c #000000000000",
"X	c #CF3CCF3CCF3C",
"o	c #FFFFFFFFFFFF",
"O	c #9E7900009E79",
"+	c #FFFF0000FFFF",
"@	c #9E799A699E79",
"#	c #000000009E79",
"$	c #0000FFFFFFFF",
"%	c #00009A699E79",
"&	c #9E799A690000",
"*	c #CF3C00000000",
"=	c #00000000FFFF",
"-	c #0000FFFF0000",
";	c #FFFFFFFF0000",
":	c #FFFF00000000",
"                        ",
"                        ",
"                        ",
" .......................",
".XoooooooooooooooooooooX",
".oO+OXXXXXXXXXXXXXXXXXXo",
".o@@@@@@@@@@@@@@@@@@@@Xo",
".o.....................X",
".o.@X@@X@@X@@X@@X@@X@@.X",
".o.###################.X",
".o.#####@OO$#%&*O#####.X",
".o.###XXoo++=-;+++X###.X",
".@XXooooXX.....XXXXXX#X@",
" .XXooooo..ooo.XXXooo#X.",
"  XXXoXXXX.....Xooooo#X ",
"  X###XXX+:;=$++XXX###X ",
"  X#####O*&&#%%@@@####X ",
" .ooooooooooooooooooooo.",
" .X@@@@@@@@@@@@@@@@@@@X.",
" .XXXXXXXXXXXXXXXXXXXXX.",
" @.....................@",
"                        ",
"                        ",
"                        "};
