#define toolRandom_width 24
#define toolRandom_height 24
static unsigned char toolRandom_bits[] = {
   0x00, 0x00, 0x00, 0x00, 0x40, 0x00, 0x00, 0x80, 0x00, 0xfc, 0xff, 0x01,
   0x00, 0x80, 0x00, 0x00, 0x48, 0x04, 0x00, 0x04, 0x04, 0x00, 0x7e, 0x04,
   0x00, 0x04, 0x15, 0x00, 0x08, 0x0e, 0x00, 0x01, 0x04, 0x00, 0x01, 0x00,
   0x00, 0x01, 0x00, 0x40, 0x05, 0x00, 0x80, 0x03, 0x02, 0x00, 0x01, 0x04,
   0x00, 0xfc, 0x0f, 0x00, 0x00, 0x04, 0x00, 0x00, 0x02, 0x88, 0x00, 0x00,
   0x48, 0x00, 0x00, 0xe8, 0xff, 0x1f, 0x48, 0x00, 0x00, 0x88, 0x00, 0x00};
