/* XPM */
static char * toolElapsed_xpm[] = {
"24 24 11 1",
" 	c None s None",
".	c #71C682079658",
"X	c #000000000000",
"o	c #FFFFFFFF0000",
"O	c #0000FFFF0000",
"+	c #B6DA20812081",
"@	c #00000000FFFF",
"#	c #FFFF0000FFFF",
"$	c #FFFF00000000",
"%	c #28A24D344924",
"&	c #FFFFFFFFFFFF",
"         ...XXXX        ",
"       oO...XXXXXX      ",
"     +@.OO..XXXXXXXX    ",
"    .#+@oO..X$XXXXXXX   ",
"   OO.#+oO..XX$$XX$XXX  ",
"  @ooO.#oO..XXXX$X$XXXX ",
"  ++@oo.#O..XXXXX$$XXXX ",
" .....@oo$..XXX$$$$XXX..",
" ......@o@O%%%XXXXXX....",
"........@o%&&&%XXX......",
".........%&&&&&%X.......",
"........%&&.  &&X.......",
"........%&. &. &X.......",
"........%&&.  &&XXXXXXXX",
".........%&&&&&%........",
"..........%&&&%.........",
" ..........%%%$.........",
" ...........O##$........",
"  ..........o+##....... ",
"  ..........$O@#$...... ",
"   ..........oO+#.....  ",
"    .........$O+#$...   ",
"     ........oO@@#$.    ",
"       ......o$O@#      "};
