#define up_width 10
#define up_height 10
static unsigned char up_bits[] = {
   0x00, 0x00, 0x10, 0x00, 0x38, 0x00, 0x38, 0x00, 0x7c, 0x00, 0xfc, 0x00,
   0xfe, 0x01, 0xfe, 0x01, 0xff, 0x03, 0x00, 0x00};
