#define on_width 16
#define on_height 16
static unsigned char on_bits[] = {
   0x00, 0x10, 0x00, 0x08, 0x00, 0x04, 0xf8, 0x1f, 0x08, 0x12, 0x08, 0x12,
   0x08, 0x11, 0x08, 0x11, 0x0c, 0x11, 0x98, 0x10, 0xa8, 0x10, 0x48, 0x10,
   0xf8, 0x1f, 0x00, 0x00, 0x00, 0x00, 0x00, 0x00};
