/* XPM */
static char * aux_xpm[] = {
"32 32 14 1",
"0 c None s None",
"1 c #000000000000",
"2 c #000000008000",
"3 c #00000000FFFF",
"4 c #000080008000",
"5 c #0000FFFF0000",
"6 c #0000FFFFFFFF",
"7 c #800080000000",
"8 c #800080008000",
"9 c #C000C000C000",
"A c #FFFF00000000",
"B c #FFFF0000FFFF",
"C c #FFFFFFFF0000",
"D c #FFFFFFFFFFFF",
"00000000000000000000000000000000",
"00000000000000000000000000000000",
"00000000000000000000000000000000",
"00000000000000000000000000000000",
"00000000111111000000000000000000",
"00000000111111800000000000000000",
"00000CDD111111888888000000000000",
"00DCCCCC111111888888880000000000",
"00000CCC111111800000880000000000",
"00000000111111000000088000000000",
"00000000000000000000008800000000",
"00000000AAAAAA000000008880000000",
"00000000AAAAAA800000888088000000",
"00000CDDAAAAAA888888888008800000",
"00DCCCCCAAAAAA888888000000880000",
"00000CCCAAAAAA800000000000088000",
"00000000AAAAAA000000000000088000",
"00000000000000000000000000088000",
"00000000000000000000000008880000",
"00000088888888888888888888000000",
"00008888888888888888888800000000",
"00088800000000000000000000000000",
"00880000000000000000000000000000",
"00880000000009999990000000000000",
"00088800808089999990000000000000",
"0008888888888999999DDDCC1CD00000",
"0000088888888999999CCCCC1CCC0000",
"0000000080808999999CCCCC1CC00000",
"00000000000009999990000000000000",
"00000000000000000000000000000000",
"00000000000000000000000000000000",
"00000000000000000000000000000000"};
