/* XPM */
static char * bass_xpm[] = {
"32 32 14 1",
"0	s None c None",
"1	c #000000000000",
"2	c #000000008000",
"3	c #00000000FFFF",
"4	c #000080008000",
"5	c #0000FFFF0000",
"6	c #0000FFFFFFFF",
"7	c #800080000000",
"8	c #800080008000",
"9	c #C000C000C000",
"A	c #FFFF00000000",
"B	c #FFFF0000FFFF",
"C	c #FFFFFFFF0000",
"D	c #FFFFFFFFFFFF",
"00000000000000000000000000000000",
"00000000000000000000000000000000",
"00000000000000000000000000000000",
"00000000000000000000000000000000",
"00000000000000000000000000000000",
"00000000000000000000000000000000",
"00000000666666666666000000000000",
"00000006633333333326660000000000",
"00000066222222222222266000000000",
"00000622226666662222226606666600",
"00000622226000062222222606322600",
"00006222666600066622222666222600",
"00062223333600000662222366666600",
"00062222222660000062222360000000",
"00066222222260000062222360000000",
"00006222222260000062222366666600",
"00006623333660000062222366322600",
"00000066666600000632222366222600",
"00000000000000006322222666666600",
"00000000000000066222222600000000",
"00000000000000622222226600000000",
"00000000000066222222666000000000",
"00000000006333222266600000000000",
"00000000062222266660000000000000",
"00000000662222260000000000000000",
"00000006332266660000000000000000",
"00000000666660000000000000000000",
"00000000000000000000000000000000",
"00000000000000000000000000000000",
"00000000000000000000000000000000",
"00000000000000000000000000000000",
"00000000000000000000000000000000"};
