#define cd_width 32
#define cd_height 32
static unsigned char cd_bits[] = {
  0x00, 0x00, 0x00, 0x00, 0x00, 0x00, 0x00, 0x00, 0x00, 0x00, 0x00, 0x00,
  0x00, 0x00, 0x00, 0x00, 0x00, 0x00, 0x00, 0x00, 0x00, 0x00, 0x00, 0x00,
  0x00, 0x00, 0x00, 0x00, 0x00, 0x00, 0x00, 0x00, 0x00, 0x00, 0x00, 0x00,
  0x00, 0xfc, 0x7f, 0x00, 0xc0, 0x03, 0x80, 0x03, 0x30, 0x00, 0xc0, 0x0c,
  0x08, 0x00, 0x30, 0x10, 0x04, 0x00, 0x0c, 0x20, 0x04, 0xe0, 0x07, 0x20,
  0x04, 0xe0, 0x07, 0x20, 0x04, 0x30, 0x00, 0x20, 0x0c, 0x0c, 0x00, 0x20,
  0x0c, 0x03, 0x00, 0x30, 0xfc, 0x00, 0x00, 0x3c, 0xf8, 0x03, 0xc0, 0x1f,
  0xf0, 0xff, 0xff, 0x0f, 0xc0, 0xff, 0xff, 0x03, 0x00, 0xfc, 0x3f, 0x00,
  0x00, 0x00, 0x00, 0x00, 0x00, 0x00, 0x00, 0x00, 0x00, 0x00, 0x00, 0x00,
  0x00, 0x00, 0x00, 0x00, 0x00, 0x00, 0x00, 0x00, 0x00, 0x00, 0x00, 0x00,
  0x00, 0x00, 0x00, 0x00, 0x00, 0x00, 0x00, 0x00, };
