/* XPM */
static char * cd_xpm[] = {
"32 32 14 1",

"0	s None c None",
"1	c #000000000000",
"2	c #000000008000",
"3	c #00000000FFFF",
"4	c #000080008000",
"5	c #0000FFFF0000",
"6	c #0000FFFFFFFF",
"7	c #800080000000",
"8	c #800080008000",
"9	c #C000C000C000",
"A	c #FFFF00000000",
"B	c #FFFF0000FFFF",
"C	c #FFFFFFFF0000",
"D	c #FFFFFFFFFFFF",
"00000011000000000000000000000000",
"00000011100000000000000000000000",
"00000011111000000000000000000000",
"00000011111110000000000000000000",
"00000010011110000000000000000000",
"00000010001110000000000000000000",
"00000010000010888888000000000000",
"00011110000818CCC000888000000000",
"001D1110088816CCC000000110000000",
"00101110855616CCC000000001000000",
"001111185111166CC00000000D100000",
"000111801D11166CC0000000D0D10000",
"000000861011166CC000000D0D810000",
"000008661111166CC00000D0D8081000",
"000008006111556CC0000D0D80801000",
"00008000006005588880D0D808080100",
"00008000000600811118DD8080808100",
"00008000000068100081880808080100",
"00008000000008100081800000000100",
"00008808080808100081800000000100",
"00008080808088100081800000000100",
"000088080808D0811118000000000100",
"00008080808D0D088886000000000100",
"0000080808D0D0000C06600000001000",
"000008808D0D0000CC50660000001000",
"00000088D0D000000C50666000010000",
"0000008D0D000000CC55066600010000",
"00000008D00000000C55066660100000",
"0000000080000000CCC5506661000000",
"00000000088000000CC5508110000000",
"0000000000088000CCC5111000000000",
"00000000000001111111000000000000"};
