#define headphone_width 32
#define headphone_height 32
static unsigned char headphone_bits[] = {
  0x00, 0x00, 0x00, 0x00, 0x00, 0x00, 0x00, 0x00, 0x00, 0x00, 0x00, 0x00,
  0x00, 0x00, 0x00, 0x00, 0x00, 0xf0, 0x07, 0x00, 0x00, 0xf8, 0x0f, 0x00,
  0x00, 0x1c, 0x1c, 0x00, 0x00, 0x06, 0x30, 0x00, 0x00, 0x03, 0x60, 0x00,
  0x80, 0x01, 0xc0, 0x00, 0xc0, 0x00, 0x80, 0x01, 0x40, 0x00, 0x00, 0x01,
  0x60, 0x00, 0x00, 0x03, 0x20, 0x00, 0x00, 0x02, 0x20, 0x00, 0x00, 0x02,
  0x20, 0x03, 0x00, 0x02, 0xa0, 0x03, 0x60, 0x02, 0xe0, 0x03, 0xe0, 0x02,
  0xe0, 0x03, 0xe0, 0x03, 0xe0, 0x03, 0xe0, 0x03, 0xe0, 0x03, 0xe0, 0x03,
  0xc0, 0x03, 0xe0, 0x01, 0xc0, 0x03, 0xe0, 0x01, 0xc0, 0x03, 0xe0, 0x01,
  0x80, 0x03, 0xe0, 0x00, 0x00, 0x03, 0x60, 0x00, 0x00, 0x00, 0x00, 0x00,
  0x00, 0x00, 0x00, 0x00, 0x00, 0x00, 0x00, 0x00, 0x00, 0x00, 0x00, 0x00,
  0x00, 0x00, 0x00, 0x00, 0x00, 0x00, 0x00, 0x00, };
