/* XPM */
static char * headphone_xpm[] = {
"32 32 14 1",
"0	s None c None",
"1	c #000000000000",
"2	c #000000008000",
"3	c #00000000FFFF",
"4	c #000080008000",
"5	c #0000FFFF0000",
"6	c #0000FFFFFFFF",
"7	c #800080000000",
"8	c #800080008000",
"9	c #C000C000C000",
"A	c #FFFF00000000",
"B	c #FFFF0000FFFF",
"C	c #FFFFFFFF0000",
"D	c #FFFFFFFFFFFF",
"00000000000000000000000000000000",
"00000000000000000000000000000000",
"00000000000333333333330000000000",
"00000000111222222222221110000000",
"00000011100222222222220011000000",
"00000110000000000000000001100000",
"00001100000000000000000000110000",
"00001000000000000000000000010000",
"00011000000000000000000000011000",
"00010003333000000000000000001000",
"00110003333000000000000000001100",
"00100003003000000000000000000100",
"00100003033000000000000000000100",
"01100033033000333300000000000110",
"01000033000000333300000000000010",
"01000000040000300300004000000010",
"01000004004000303300040040000010",
"01011100404003303300040400111010",
"0111BB10400003300000000401BB1110",
"011AAB10000000000003333001BAA110",
"011AAB10040400000003333001BAA110",
"111AAB10040400000003003001BAA111",
"111AAB10040400000003033001BAA111",
"001AAB10040400000033033001BAA100",
"0001AB10000000000033000001BA1000",
"0001AB10400000000000000401BA1000",
"00011100404000000000040400111000",
"00000004004000000000040040000000",
"00000000040000000000004000000000",
"00000000000000000000000000000000",
"00000000000000000000000000000000",
"00000000000000000000000000000000"};
