/* XPM */
static char * mic_xpm[] = {
"32 32 14 1",
"0	s None c None",
"1	c #000000000000",
"2	c #000000008000",
"3	c #00000000FFFF",
"4	c #000080008000",
"5	c #0000FFFF0000",
"6	c #0000FFFFFFFF",
"7	c #800080000000",
"8	c #800080008000",
"9	c #C000C000C000",
"A	c #FFFF00000000",
"B	c #FFFF0000FFFF",
"C	c #FFFFFFFF0000",
"D	c #FFFFFFFFFFFF",
"00000000000000000009333339000000",
"00000000000000000033313133300000",
"00000000000000000333331313130000",
"00000000000000009333333131319000",
"00000000000000003338333313133000",
"00000000000000003383333331313000",
"00000000000000003333333313133000",
"00000000000000003333333131313000",
"00000000000000003313131313133000",
"0000000000000008D131313131319000",
"0000000000000089D913131313130000",
"000000000000089D9981313133300000",
"00000000000089D99881333339000000",
"0000000000089D998818000000000000",
"000000000089D9988180000000000000",
"00000000089D99881800000000000000",
"0000000089D998818000000000000000",
"000000089D9988180000000000000000",
"00000089D99881800000000000000000",
"0000089D998818000000000000000000",
"000089D9988180000000011118900000",
"00089D99881800000001118881180000",
"0089D998818000000811890000118000",
"089D9988180000001180000000011800",
"89D99881800000011800000000000100",
"1D998818000008118000000000000000",
"89988180000011800000000000000000",
"18881800008118000000000000000000",
"01118000011890000000000000000000",
"01899998118900000000000000000000",
"00811111890000000000000000000000",
"00000000000000000000000000000000"};
