#define mixicon_width 40
#define mixicon_height 40
static unsigned char mixicon_bits[] = {
  0x00, 0x00, 0x00, 0x00, 0x00, 0x00, 0x00, 0x00, 0x00, 0x00, 0x00, 0x00,
  0x00, 0x00, 0x00, 0x00, 0x00, 0x00, 0x00, 0x00, 0x00, 0x00, 0x00, 0x00,
  0x00, 0x00, 0x00, 0x00, 0x00, 0x00, 0xe0, 0x3f, 0x00, 0x00, 0x00, 0xe0,
  0x1f, 0x00, 0x00, 0x00, 0xe0, 0x3f, 0x00, 0x00, 0x00, 0x60, 0x10, 0x80,
  0x49, 0x00, 0x60, 0x30, 0xc0, 0x91, 0x00, 0xe0, 0x18, 0xe0, 0x27, 0x00,
  0xe0, 0x3d, 0x70, 0x09, 0x00, 0xe0, 0x1f, 0x38, 0x13, 0x04, 0xe0, 0x3f,
  0x5c, 0x05, 0x05, 0x60, 0x95, 0x2f, 0x41, 0x09, 0x00, 0xc2, 0x57, 0x53,
  0x0a, 0x00, 0xc2, 0x2f, 0x95, 0x0a, 0x00, 0x42, 0x54, 0xa5, 0x0a, 0x00,
  0xfe, 0x57, 0xa9, 0x0a, 0x00, 0x42, 0x2c, 0xa5, 0x0a, 0x00, 0x82, 0x57,
  0x95, 0x0a, 0x00, 0x02, 0xac, 0x53, 0x0a, 0xe0, 0x3f, 0x58, 0x41, 0x09,
  0xe0, 0x1f, 0xb0, 0x05, 0x05, 0xe0, 0x3f, 0x60, 0x13, 0x04, 0xe0, 0x1d,
  0xc0, 0x09, 0x00, 0xe0, 0x38, 0x80, 0x27, 0x00, 0x60, 0x10, 0x00, 0x91,
  0x00, 0x60, 0x30, 0x00, 0x49, 0x00, 0xe0, 0x1f, 0x00, 0x00, 0x00, 0xe0,
  0x3f, 0x00, 0x00, 0x00, 0x60, 0x15, 0x00, 0x00, 0x00, 0x00, 0x00, 0x00,
  0x00, 0x00, 0x00, 0x00, 0x00, 0x00, 0x00, 0x00, 0x00, 0x00, 0x00, 0x00,
  0x00, 0x00, 0x00, 0x00, 0x00, 0x00, 0x00, 0x00, 0x00, 0x00, 0x00, 0x00,
  0x00, 0x00, 0x00, 0x00, 0x00, 0x00, 0x00, 0x00, };
