/* XPM */
static char * mixicon_xpm[] = {
"40 40 14 1",
"0	s None c None",
"1	c #000000000000",
"2	c #000000008000",
"3	c #00000000FFFF",
"4	c #000080008000",
"5	c #0000FFFF0000",
"6	c #0000FFFFFFFF",
"7	c #800080000000",
"8	c #800080008000",
"9	c #C000C000C000",
"A	c #FFFF00000000",
"B	c #FFFF0000FFFF",
"C	c #FFFFFFFF0000",
"D	c #FFFFFFFFFFFF",
"0000000000000000000000000000000000000000",
"0000000000000000000000000000000000000000",
"0000000000000000000000000000000000000000",
"0000000000000000000000000000000000000000",
"0000000000000000000000000000000000000000",
"0000111111111110000000000000000000000000",
"00001DDDDDDDD910000000000000000000000000",
"00001D9999999810000000000000000000000000",
"00001D9999999810000000000000000000000000",
"00001D9888889810000000022009009000000000",
"00001D9111119810000000242000900800000000",
"00001D9D111D9810000002642990080010000000",
"00001D99D1DD9810000026D42008001001000000",
"00001D999DD9981000026D642900800100B00000",
"00001D99999998100026D6D420800100A0B00000",
"0000198888888812229D6D64200100B0A00B0000",
"00001111111111229996D6D42900A0B00A0B0000",
"000000000200002DDDDD6D6420B0A00B0A0B0000",
"00000000020000266666969120B00A0B0A0B0000",
"000000000222222999946464200B0A0B0A0B0000",
"00000000020000244449494120B00A0B0A0B0000",
"00000000020000122224949420B0A00B0A0B0000",
"0000111111111121212249412900A0B00A0B0000",
"00001DDDDDDDD91111142491200100B0A00B0000",
"00001D99999998100011424120800100A0B00000",
"00001D9998999810000114212900800100B00000",
"00001D9981899810000011412008001001000000",
"00001D9811189810000001112990080010000000",
"00001D9111119810000000112000900800000000",
"00001D9DDDDD9810000000012009009000000000",
"00001D9999999810000000000000000000000000",
"00001D9999999810000000000000000000000000",
"0000198888888810000000000000000000000000",
"0000111111111110000000000000000000000000",
"0000000000000000000000000000000000000000",
"0000000000000000000000000000000000000000",
"0000000000000000000000000000000000000000",
"0000000000000000000000000000000000000000",
"0000000000000000000000000000000000000000",
"0000000000000000000000000000000000000000"};
