#define mute_width 16
#define mute_height 16
static unsigned char mute_bits[] = {
  0x00, 0x00, 0x06, 0x04, 0x0c, 0x08, 0x18, 0x13, 0x70, 0x14, 0x60, 0x25,
  0xf0, 0x29, 0xfc, 0x2b, 0xfc, 0x4b, 0x7c, 0x2e, 0x70, 0x2d, 0x60, 0x3d,
  0x40, 0x34, 0x00, 0x73, 0x00, 0xc8, 0x00, 0x84, };
