/* XPM */
static char * pcm2_xpm[] = {
"32 32 14 1",
"0	s None c None",
"1	c #000000000000",
"2	c #000000008000",
"3	c #00000000FFFF",
"4	c #000080008000",
"5	c #0000FFFF0000",
"6	c #0000FFFFFFFF",
"7	c #800080000000",
"8	c #800080008000",
"9	c #C000C000C000",
"A	c #FFFF00000000",
"B	c #FFFF0000FFFF",
"C	c #FFFFFFFF0000",
"D	c #FFFFFFFFFFFF",
"00000220000000000100000000000000",
"00200202000000001100000AAA000000",
"0222222222222221710000A000A00000",
"002002002000001C7100000000A00000",
"00202200200001C771000000AA000000",
"2222222222211C7C710000AA00000000",
"022022002001CCDC710000A000000000",
"02200002201CCDDC710000AAAAA00000",
"2222222221CCDDDCC111111000000000",
"0000A0021C7DDDDDC71D9D9110000000",
"000AA001C7CCCCDDCC71D9DDD1000000",
"2222A2177777CCCCDCCC1D9DDD100000",
"0AA0A11111111777CCCCC1DDD9D10000",
"0A00A000001D9111177CCC1D9D891000",
"0A0AA000001DD99381117CC1D8981000",
"AA0000000155DD9935D917CC19898100",
"0000000001B555D935D9917CC1989100",
"0000000001BBB55593D9D91CC189B100",
"0000000001111111111111CCC1BBB100",
"000000001CCCCCCCCCCCCCCC1B898100",
"08111111111111111111111111111800",
"01DDDDDDDDDDDDDDDDDDDDDDDDDD9180",
"01D11111111111111111111111118189",
"01D1D1919D9D9D9D9D9D9D9D91D18189",
"01D11111111111111111111111118189",
"01D99999999999999999999999998189",
"01D11119111191111911119999998189",
"01D19D1919D1919D1919D19999998189",
"01D11119111191111911119999998189",
"01988888888888888888888888888189",
"01111111111111111111111111111189",
"00888888888888888888888888888889"};
