/* XPM */
static char * pcsp_xpm[] = {
"32 32 14 1",
"0	s None c None",
"1	c #000000000000",
"2	c #000000008000",
"3	c #00000000FFFF",
"4	c #000080008000",
"5	c #0000FFFF0000",
"6	c #0000FFFFFFFF",
"7	c #800080000000",
"8	c #800080008000",
"9	c #C000C000C000",
"A	c #FFFF00000000",
"B	c #FFFF0000FFFF",
"C	c #FFFFFFFF0000",
"D	c #FFFFFFFFFFFF",
"00000000000000000000000000000000",
"00000000000000000000000000000000",
"00000000000000000000000000000000",
"00000000000000000000000000000000",
"00000000000000000000000000000000",
"00000000000000000000000000000000",
"00000000000000000000000000000000",
"00000000000000001100000000000000",
"00000000000000078180000000000000",
"000000000000007C1000000000000000",
"00000000000007C880D8000800000000",
"0000000000007CD10DD8008000000000",
"000000000077CDC10DD8080000000000",
"0000000007D0DCD11DD8000000000000",
"0000000007C0CDC101D8000000000000",
"0000000007C0DCD181D8088800000000",
"000000000178CDC11DD8000000000000",
"0000000000117CD10DD8000000000000",
"00000000000017C10DD8080000000000",
"00000000000001788DD8008000000000",
"00000000000000171008000800000000",
"00000000000000017180000000000000",
"00000000000000001100000000000000",
"00000000000000000000000000000000",
"00000000000000000000000000000000",
"00000000000000000000000000000000",
"00000000000000000000000000000000",
"00000000000000000000000000000000",
"00000000000000000000000000000000",
"00000000000000000000000000000000",
"00000000000000000000000000000000",
"00000000000000000000000000000000"};
