#define power_width 20
#define power_height 20
static unsigned char power_bits[] = {
   0x00, 0x00, 0x00, 0xfe, 0xff, 0x07, 0xfe, 0xff, 0x07, 0xfe, 0xff, 0x07,
   0xfe, 0xff, 0x07, 0xfe, 0xff, 0x07, 0xfe, 0xff, 0x07, 0xfe, 0xff, 0x07,
   0xfe, 0xff, 0x07, 0xfe, 0xff, 0x07, 0xfe, 0xff, 0x07, 0xfe, 0xff, 0x07,
   0xfe, 0xff, 0x07, 0xfe, 0xff, 0x07, 0xfe, 0xff, 0x07, 0xfe, 0xff, 0x07,
   0xfe, 0xff, 0x07, 0xfe, 0xff, 0x07, 0xfe, 0xff, 0x07, 0x00, 0x00, 0x00};
