/* XPM */
static char * synth_xpm[] = {
"32 32 14 1",
"0	s None c None",
"1	c #000000000000",
"2	c #000000008000",
"3	c #00000000FFFF",
"4	c #000080008000",
"5	c #0000FFFF0000",
"6	c #0000FFFFFFFF",
"7	c #800080000000",
"8	c #800080008000",
"9	c #C000C000C000",
"A	c #FFFF00000000",
"B	c #FFFF0000FFFF",
"C	c #FFFFFFFF0000",
"D	c #FFFFFFFFFFFF",
"00000000000000000000000000000000",
"00000001000011000000100000000000",
"00000010100001110000110000000000",
"00000010100001001000101000000000",
"00000111000001001000101000000000",
"00001010000000100000101000100000",
"00010011000000100001100001A10000",
"0001011010000110001110001A1A1000",
"00010110100011100011000001AAA100",
"0000101100001100000000001AAA1A10",
"000001100000000000000001C1A1A100",
"00010010000000000000001CAC101000",
"0001001000000000000001CAC1000000",
"000011000000000011111CAC10000000",
"00000000000000017C71CAC100000000",
"0000000000000017C71CAC1000000000",
"000000000000017C71CAC11000000000",
"00000000011111C7CC1C171000000000",
"000000011C7C7C7117C17C1000000000",
"00000017C7C7C71111C7C71000000000",
"0000001C7C7C7C11117C710000000000",
"000001C7C7C1C7C117C7C10000000000",
"0000017C7C7C1C7C7C7C100000000000",
"000001C7C7C7C1C7C711000000000000",
"0000017C7C7C7C1C7C10000000000000",
"00000017C7C7C7C7C710000000000000",
"0000001C7C7C7C7C7C10000000000000",
"00000001C7C7C7C7C100000000000000",
"000000001C7C7C7C7100000000000000",
"000000000117C7C11000000000000000",
"00000000000111100000000000000000",
"00000000000000000000000000000000"};
