/* XPM */
static char * tape_xpm[] = {
"32 32 14 1",
"0	s None c None",
"1	c #000000000000",
"2	c #000000008000",
"3	c #00000000FFFF",
"4	c #000080008000",
"5	c #0000FFFF0000",
"6	c #0000FFFFFFFF",
"7	c #800080000000",
"8	c #800080008000",
"9	c #C000C000C000",
"A	c #FFFF00000000",
"B	c #FFFF0000FFFF",
"C	c #FFFFFFFF0000",
"D	c #FFFFFFFFFFFF",
"00000000000000000000000000000000",
"00000000000000000000000000000000",
"00000000000000000000000000000000",
"00000000000000000000000000000000",
"00000000000000000000000000000000",
"00111111111111111111111111111110",
"01DDDDDDDDDDDDDDDDDDDDDDDDDDD881",
"01D19999999999999999999999991881",
"01D99999999999999999999999999881",
"01D99999999999999999999999999881",
"01D99888899999999999999888899881",
"01D98811189911111111198811189881",
"01D981D1D1D917777788D981D1D1D881",
"01D9811811D917CCC700D9811811D881",
"01D981D1D1D917CCC700D981D1D1D881",
"01D998111DD91DDDDDDDD998111DD881",
"01D999DDDD99999999999999DDDD9881",
"01D99999999999999999999999999881",
"01D99999999999999999999999999881",
"01D99999DDDDDDDDDDDDDDD889999881",
"01D9999D99999991D999999919999881",
"01D9999D9991D9999991D99988999881",
"01D199D991D99999999991D991991881",
"01888818888888888888888881888881",
"01888818881118811188111881888881",
"00111111111111111111111111111110",
"00000000000000000000000000000000",
"00000000000000000000000000000000",
"00000000000000000000000000000000",
"00000000000000000000000000000000",
"00000000000000000000000000000000",
"00000000000000000000000000000000"};
