/* XPM */
static char * treble_xpm[] = {
"32 32 14 1",
"0	s None c None",
"1	c #000000000000",
"2	c #000000008000",
"3	c #00000000FFFF",
"4	c #000080008000",
"5	c #0000FFFF0000",
"6	c #0000FFFFFFFF",
"7	c #800080000000",
"8	c #800080008000",
"9	c #C000C000C000",
"A	c #FFFF00000000",
"B	c #FFFF0000FFFF",
"C	c #FFFFFFFF0000",
"D	c #FFFFFFFFFFFF",
"00000000000000666000000000000000",
"00000000000000222600000000000000",
"00000000000062363260000000000000",
"00000000000062606326000000000000",
"00000000000062600626000000000000",
"00000000000062600626000000000000",
"00000000000063366326000000000000",
"00000000000063366236000000000000",
"00000000000006262260000000000000",
"00000000000006232360000000000000",
"00000000000006222600000000000000",
"00000000000062226000000000000000",
"00000000000622226000000000000000",
"00000000006222626000000000000000",
"00000000062226626000000000000000",
"00000000622266623660000000000000",
"00000006222663222223660000000000",
"00000063226622232322236000000000",
"00000062266223662666323000000000",
"00000062366236062600632600000000",
"00000062306260063360062600000000",
"00000062366260063360062600000000",
"00000063260626606260062600000000",
"00000006236662266260623600000000",
"00000000622666606266326000000000",
"00000000063236666262260000000000",
"00000000666632222223600000000000",
"00000006322600006260000000000000",
"00000006222600062360000000000000",
"00000006226000632600000000000000",
"00000000622222226000000000000000",
"00000000066666600000000000000000"};
