/* XPM */
static char * vol_xpm[] = {
"32 32 14 1",
"0	s None c None",
"1	c #000000000000",
"2	c #000000008000",
"3	c #00000000FFFF",
"4	c #000080008000",
"5	c #0000FFFF0000",
"6	c #0000FFFFFFFF",
"7	c #800080000000",
"8	c #800080008000",
"9	c #C000C000C000",
"A	c #FFFF00000000",
"B	c #FFFF0000FFFF",
"C	c #FFFFFFFF0000",
"D	c #FFFFFFFFFFFF",
"0000AA8888888888888888888AA00000",
"0000A888888888888888888888A00000",
"00008999999999999999999999800000",
"00008111111111111111111111800000",
"00008111111888888888111111800000",
"00008111111888818888111111800000",
"00008111111888111888111111800000",
"00008111111888111888111111800000",
"00008111111888888888111111800000",
"00008111111888888888111111800000",
"00008111111888111888111111800000",
"00008111111881111188111111800000",
"00008111111881818188111111800000",
"00008111111881898188111111800000",
"00008111111888111888111111800000",
"00008111111888888888111111800000",
"00008111111111111111111111800000",
"00008111188888888888881111800000",
"00008111888811111118888111800000",
"00008118818111111111818811800000",
"00008118881111111111188811800000",
"00008118811111898118118811800000",
"00008118811818111811818811800000",
"00008118818111111118118811800000",
"00008118811888111881818811800000",
"00008118818899811998118811800000",
"000081188189D91118D9818811800000",
"00008118881D9811119D188811800000",
"00008111888111111111888111800000",
"00008111188888888888881111800000",
"00008111111111111111111111800000",
"00008888888888888888888888800000"};
