#define volume_width 16
#define volume_height 16
static unsigned char volume_bits[] = {
  0x00, 0x00, 0x00, 0x04, 0x00, 0x08, 0x00, 0x13, 0x40, 0x14, 0x60, 0x25,
  0x70, 0x29, 0x7c, 0x2a, 0xfc, 0x4a, 0x7c, 0x2a, 0x70, 0x29, 0x60, 0x25,
  0x40, 0x14, 0x00, 0x13, 0x00, 0x08, 0x00, 0x04, };
