#define wide_width 32
#define wide_height 16
static unsigned char wide_bits[] = {
  0x00, 0x00, 0x00, 0x00, 0x10, 0x00, 0x00, 0x04, 0x08, 0x00, 0x00, 0x08,
  0x64, 0x00, 0x00, 0x13, 0x14, 0x01, 0x40, 0x14, 0x52, 0x03, 0x60, 0x25,
  0x4a, 0x07, 0x70, 0x29, 0x2a, 0x0f, 0x78, 0x2a, 0xa9, 0x0f, 0xf8, 0x4a,
  0x2a, 0x0f, 0x78, 0x2a, 0x4a, 0x07, 0x70, 0x29, 0x52, 0x03, 0x60, 0x25,
  0x14, 0x01, 0x40, 0x14, 0x64, 0x00, 0x00, 0x13, 0x08, 0x00, 0x00, 0x08,
  0x10, 0x00, 0x00, 0x04, };
