#define wideoff_width 25
#define wideoff_height 16
static unsigned char wideoff_bits[] = {
  0x00, 0x00, 0x00, 0x00, 0x10, 0x00, 0x10, 0x00, 0x08, 0x00, 0x20, 0x00,
  0x64, 0x00, 0x4c, 0x00, 0x14, 0x01, 0x51, 0x00, 0x52, 0x83, 0x95, 0x00,
  0x4a, 0xc7, 0xa5, 0x00, 0x2a, 0xef, 0xa9, 0x00, 0xa9, 0xef, 0x2b, 0x01,
  0x2a, 0xef, 0xa9, 0x00, 0x4a, 0xc7, 0xa5, 0x00, 0x52, 0x83, 0x95, 0x00,
  0x14, 0x01, 0x51, 0x00, 0x64, 0x00, 0x4c, 0x00, 0x08, 0x00, 0x20, 0x00,
  0x10, 0x00, 0x10, 0x00, };
